<svg xmlns="http://www.w3.org/2000/svg" width="158" height="158" viewBox="0 0 158 158"><g transform="translate(-832 -2465)"><path d="M49.9,17.274a1.312,1.312,0,0,1,1.312-1.312h.37a1.312,1.312,0,1,1,0,2.624h-.37A1.312,1.312,0,0,1,49.9,17.274ZM80.135,2.624h.37A1.312,1.312,0,1,0,80.5,0h-.37a1.312,1.312,0,0,0,0,2.624ZM46.672,37.879l-.262.262A1.312,1.312,0,1,0,48.265,40l.262-.262a1.312,1.312,0,1,0-1.855-1.856Zm10.255,9.1a1.312,1.312,0,1,0-1.855,1.855l.261.261a1.312,1.312,0,0,0,1.855-1.855ZM95.594,11.795h.37a1.312,1.312,0,0,0,0-2.624h-.37a1.312,1.312,0,0,0,0,2.624ZM71.871,14.753a1.312,1.312,0,0,0,1.855,0L75.476,13l1.75,1.75A1.312,1.312,0,0,0,79.082,12.9l-1.75-1.75,1.75-1.75a1.312,1.312,0,0,0-1.855-1.855l-1.75,1.75-1.75-1.75A1.312,1.312,0,0,0,71.871,9.4l1.75,1.75-1.75,1.75A1.312,1.312,0,0,0,71.871,14.753ZM78.843,45.9V76.035a3.965,3.965,0,0,1-7.93,0V45.9a3.965,3.965,0,1,1,7.93,0Zm-2.624,0a1.343,1.343,0,0,0-1.341-1.341A1.359,1.359,0,0,0,73.536,45.9V76.035a1.341,1.341,0,1,0,2.682,0Zm21.2-14.345a1.312,1.312,0,0,0,0-1.855l-1.75-1.75,1.75-1.75a1.312,1.312,0,1,0-1.855-1.855l-1.75,1.75-1.75-1.75A1.312,1.312,0,0,0,90.2,26.2l1.75,1.75L90.2,29.7a1.312,1.312,0,1,0,1.855,1.855L93.809,29.8l1.751,1.751a1.312,1.312,0,0,0,1.855,0Zm-.556,9.141-.262.262a1.312,1.312,0,1,0,1.855,1.856l.262-.262a1.312,1.312,0,0,0-1.855-1.856ZM56.106,27.948l1.75-1.75A1.312,1.312,0,1,0,56,24.343l-1.75,1.75-1.75-1.75A1.312,1.312,0,1,0,50.646,26.2l1.75,1.75-1.75,1.75A1.312,1.312,0,1,0,52.5,31.554l1.75-1.75L56,31.554A1.312,1.312,0,0,0,57.856,29.7Zm52.285-.352-.262-.261a1.312,1.312,0,0,0-1.854,1.856l.262.261a1.312,1.312,0,0,0,1.855-1.856ZM88.609,17.851,82.288,29.81l6.321,11.959a1.312,1.312,0,0,1-1.773,1.773L74.877,37.22,62.919,43.541a1.312,1.312,0,0,1-1.773-1.773l6.32-11.959-6.32-11.958a1.312,1.312,0,0,1,1.773-1.773L74.877,22.4l11.959-6.321a1.312,1.312,0,0,1,1.773,1.773ZM84.3,20.385,75.49,25.042a1.311,1.311,0,0,1-1.226,0l-8.811-4.657L70.11,29.2a1.312,1.312,0,0,1,0,1.226l-4.657,8.811,8.811-4.657a1.311,1.311,0,0,1,1.226,0L84.3,39.234l-4.657-8.811a1.312,1.312,0,0,1,0-1.226ZM62.491,6.362l.261-.262A1.312,1.312,0,0,0,60.9,4.246l-.261.261a1.312,1.312,0,0,0,1.855,1.855Z" transform="translate(833.974 2504)" fill="#5400ff"/><g transform="translate(832 2465)" fill="none" stroke="#5400ff" stroke-linecap="square" stroke-width="2" stroke-dasharray="122"><circle cx="79" cy="79" r="79" stroke="none"/><circle cx="79" cy="79" r="78" fill="none"/></g></g></svg>