<svg xmlns="http://www.w3.org/2000/svg" width="26.194" height="19.649" viewBox="0 0 26.194 19.649"><path d="M26.023,8.839a3.977,3.977,0,0,0-3.786-4.155C19.4,4.551,16.511,4.5,13.559,4.5h-.921c-2.947,0-5.843.051-8.678.184A3.986,3.986,0,0,0,.179,8.849C.051,10.671-.005,12.492,0,14.314s.051,3.643.174,5.47a3.991,3.991,0,0,0,3.781,4.17c2.978.138,6.033.2,9.138.194q4.666.015,9.138-.194a3.991,3.991,0,0,0,3.786-4.17c.123-1.827.179-3.648.174-5.475Q26.207,11.576,26.023,8.839ZM10.591,19.333V9.279L18.01,14.3Z" transform="translate(0 -4.5)" fill="#333"/></svg>