<svg xmlns="http://www.w3.org/2000/svg" width="158" height="158" viewBox="0 0 158 158"><g transform="translate(-328 -2465)"><g transform="translate(328 2465)" fill="none" stroke="#d700ff" stroke-linecap="square" stroke-width="2" stroke-dasharray="122"><circle cx="79" cy="79" r="79" stroke="none"/><circle cx="79" cy="79" r="78" fill="none"/></g><path d="M88.68,13.858a1.172,1.172,0,0,1-1.172,1.172H58.143a1.172,1.172,0,0,1,0-2.344H87.508A1.172,1.172,0,0,1,88.68,13.858Zm14.917,0v8.457a5.407,5.407,0,0,1-5.4,5.4H77.054A3.06,3.06,0,0,0,74,30.772v3.057h1.4a2.827,2.827,0,0,1,2.824,2.824V67.176A2.827,2.827,0,0,1,75.4,70H70.249a2.827,2.827,0,0,1-2.824-2.824V36.652a2.827,2.827,0,0,1,2.824-2.824h1.4V30.771a5.407,5.407,0,0,1,5.4-5.4H98.2a3.06,3.06,0,0,0,3.056-3.056V13.857A3.06,3.06,0,0,0,98.2,10.8H95.14v3.981a4.48,4.48,0,0,1-4.475,4.475h-24.1v3.389a3.543,3.543,0,0,1-4.741,3.334v2.448a3.542,3.542,0,0,1-7.085,0V19.251a4.481,4.481,0,0,1-4.229-4.469V4.475A4.48,4.48,0,0,1,54.987,0H90.664A4.48,4.48,0,0,1,95.14,4.475V8.457H98.2A5.407,5.407,0,0,1,103.6,13.857Zm-39.376,5.4H57.084v9.171a1.2,1.2,0,1,0,2.4,0V22.647a1.172,1.172,0,0,1,2.344,0,1.2,1.2,0,0,0,2.4,0ZM92.8,4.475a2.134,2.134,0,0,0-2.131-2.131H54.987a2.134,2.134,0,0,0-2.132,2.131V14.782a2.134,2.134,0,0,0,2.132,2.131H90.664A2.134,2.134,0,0,0,92.8,14.782Zm-22.547,31.7a.486.486,0,0,0-.48.48V67.176a.486.486,0,0,0,.48.48H75.4a.486.486,0,0,0,.48-.48V36.652a.486.486,0,0,0-.48-.48Z" transform="translate(329.489 2509)" fill="#d700ff"/></g></svg>