<svg xmlns="http://www.w3.org/2000/svg" width="158" height="158" viewBox="0 0 158 158"><g transform="translate(-1316 -2465)"><path d="M40.439,26.57a1.271,1.271,0,0,1,0-2.542h7.573a1.271,1.271,0,1,1,0,2.542ZM42.24,56.3a7.91,7.91,0,0,0,7.9,7.9H85.9v-.321a2.936,2.936,0,0,1,2.932-2.932h4.845a1.271,1.271,0,0,1,1.271,1.271v6.506A1.271,1.271,0,0,1,93.672,70H88.828A2.936,2.936,0,0,1,85.9,67.068v-.321H50.141a10.443,10.443,0,0,1,0-20.887H84.5a7.936,7.936,0,0,0,7.9-7.951V10.443a7.91,7.91,0,0,0-7.9-7.9c-4.22,0-4.782.533-9.157,4.683L69.457,12.8a10.1,10.1,0,0,1-.862,13.279l-5.479,5.479a1.271,1.271,0,0,1-1.8,0L48.855,19.095a1.271,1.271,0,0,1,0-1.8l5.479-5.479A10.1,10.1,0,0,1,67.665,11l5.929-5.615C78.064,1.14,79.266,0,84.5,0A10.455,10.455,0,0,1,94.943,10.443V37.91A10.481,10.481,0,0,1,84.5,48.4H50.141A7.91,7.91,0,0,0,42.24,56.3ZM66.821,13.641l-.048-.048a7.55,7.55,0,0,0-10.642.023l-4.58,4.58L62.216,28.862l4.58-4.58A7.549,7.549,0,0,0,66.821,13.641ZM88.438,67.068a.4.4,0,0,0,.39.39H92.4V63.494H88.828a.4.4,0,0,0-.39.39ZM43.81,36.333a1.271,1.271,0,0,0,1.8,0l5.355-5.355a1.271,1.271,0,0,0-1.8-1.8L43.81,34.536A1.271,1.271,0,0,0,43.81,36.333Zm13.5-20.957a1.271,1.271,0,1,0,1.8,1.8,2.977,2.977,0,0,1,2.121-.874h0a2.978,2.978,0,0,1,2.122.874,1.271,1.271,0,0,0,1.8-1.8A5.549,5.549,0,0,0,57.314,15.377ZM56.1,40.117V32.545a1.271,1.271,0,0,0-2.542,0v7.573a1.271,1.271,0,0,0,2.542,0Z" transform="translate(1327.832 2509)" fill="#ff9100"/><g transform="translate(1316 2465)" fill="none" stroke="#ff9100" stroke-linecap="square" stroke-width="2" stroke-dasharray="122"><circle cx="79" cy="79" r="79" stroke="none"/><circle cx="79" cy="79" r="78" fill="none"/></g></g></svg>