<svg xmlns="http://www.w3.org/2000/svg" width="24.174" height="19.647" viewBox="0 0 24.174 19.647"><path d="M24.127,5.709a10.073,10.073,0,0,1-2.845.781A4.994,4.994,0,0,0,23.46,3.747a10.236,10.236,0,0,1-3.15,1.193,4.954,4.954,0,0,0-8.572,3.382,5.071,5.071,0,0,0,.128,1.132A14.035,14.035,0,0,1,1.652,4.291,4.857,4.857,0,0,0,.981,6.783a4.956,4.956,0,0,0,2.2,4.126,4.94,4.94,0,0,1-2.244-.62v.061a4.958,4.958,0,0,0,3.974,4.862,5,5,0,0,1-2.228.086,4.972,4.972,0,0,0,4.637,3.442,9.939,9.939,0,0,1-6.146,2.12A10.519,10.519,0,0,1,0,20.792a14.1,14.1,0,0,0,7.612,2.225A14,14,0,0,0,21.712,8.93c0-.211,0-.423-.015-.635a10.008,10.008,0,0,0,2.478-2.566l-.047-.02Z" transform="translate(0 -3.369)" fill="#333"/></svg>