<svg xmlns="http://www.w3.org/2000/svg" width="19.648" height="19.648" viewBox="0 0 19.648 19.648"><path d="M16.739,16.743H13.83V12.184c0-1.087-.022-2.486-1.516-2.486-1.517,0-1.749,1.183-1.749,2.406v4.639H7.655V7.368H10.45V8.646h.038a3.066,3.066,0,0,1,2.759-1.515c2.948,0,3.493,1.94,3.493,4.466v5.146ZM4.369,6.085a1.69,1.69,0,1,1,1.69-1.691A1.688,1.688,0,0,1,4.369,6.085ZM5.828,16.743H2.91V7.368H5.828ZM18.195,0H1.45A1.432,1.432,0,0,0,0,1.415V18.232a1.432,1.432,0,0,0,1.45,1.415H18.192a1.437,1.437,0,0,0,1.456-1.415V1.415A1.438,1.438,0,0,0,18.192,0Z" fill="#333"/></svg>